<?xml version="1.0" encoding="UTF-8"?>
<svg width="161px" height="114px" viewBox="0 0 161 114" version="1.1" xmlns="http://www.w3.org/2000/svg" xmlns:xlink="http://www.w3.org/1999/xlink">
    <!-- Generator: Sketch 42 (36781) - http://www.bohemiancoding.com/sketch -->
    <title>Interests</title>
    <desc>Created with Sketch.</desc>
    <defs>
        <rect id="path-1" x="0.346512625" y="0.510776295" width="152" height="105"></rect>
        <mask id="mask-2" maskContentUnits="userSpaceOnUse" maskUnits="objectBoundingBox" x="-4" y="-4" width="160" height="113">
            <rect x="-3.65348737" y="-3.4892237" width="160" height="113" fill="white"></rect>
            <use xlink:href="#path-1" fill="black"></use>
        </mask>
    </defs>
    <g id="Page-1" stroke="none" stroke-width="1" fill="none" fill-rule="evenodd">
        <g id="Artboard" transform="translate(-53.000000, -317.000000)">
            <g id="Interests" transform="translate(57.000000, 321.000000)">
                <use id="Rectangle-3" stroke="#FFFFFF" mask="url(#mask-2)" stroke-width="8" transform="translate(76.346513, 53.010776) rotate(-180.000000) translate(-76.346513, -53.010776) " xlink:href="#path-1"></use>
                <path d="M19,40.2473573 C19,40.2473573 28.5617533,40.6630857 29.3932101,39.8316289 C30.2246669,39.0001721 42.2635698,17.1022986 44.3594326,14.4721963 C46.4552954,11.842094 49.4037032,11.6131253 51.8425439,12.3935543 C54.2813845,13.1739833 54.7526427,17.7980236 54.7526427,17.7980236 L51.8425439,32.7642461 C51.8425439,32.7642461 61.8200255,32.3485177 63.8986675,32.7642461 C65.9773096,33.1799745 67.1554837,33.2019559 68.8874084,35.2586165 C70.6193331,37.3152771 70.3398772,37.6326807 70.550322,40.6630857 C70.7607668,43.6934907 70.1345936,65.1910615 70.1345936,65.1910615 C70.1345936,65.1910615 69.9177805,67.8049666 67.2244948,71.0112592 C64.531209,74.2175517 62.2357539,75.1685432 61.4042971,75.5842716 C60.5728403,76 41.8650622,76 41.8650622,76 C41.8650622,76 38.5933488,75.9161362 36.4605929,74.7528148 C34.3278371,73.5894934 33.1347657,71.4269876 32.7190373,71.0112592 C32.3033089,70.5955308 33.2321642,69.6402552 28.5617533,68.9326171 C23.8913423,68.2249791 19,68.9326171 19,68.9326171 L19,40.2473573 Z" id="Path-2" stroke="#1FAF84" stroke-width="3" fill="#82CCB2"></path>
                <path d="M82,59.2473573 C82,59.2473573 91.5617533,59.6630857 92.3932101,58.8316289 C93.2246669,58.0001721 105.26357,36.1022986 107.359433,33.4721963 C109.455295,30.842094 112.403703,30.6131253 114.842544,31.3935543 C117.281384,32.1739833 117.752643,36.7980236 117.752643,36.7980236 L114.842544,51.7642461 C114.842544,51.7642461 124.820026,51.3485177 126.898668,51.7642461 C128.97731,52.1799745 130.155484,52.2019559 131.887408,54.2586165 C133.619333,56.3152771 133.339877,56.6326807 133.550322,59.6630857 C133.760767,62.6934907 133.134594,84.1910615 133.134594,84.1910615 C133.134594,84.1910615 132.917781,86.8049666 130.224495,90.0112592 C127.531209,93.2175517 125.235754,94.1685432 124.404297,94.5842716 C123.57284,95 104.865062,95 104.865062,95 C104.865062,95 101.593349,94.9161362 99.4605929,93.7528148 C97.3278371,92.5894934 96.1347657,90.4269876 95.7190373,90.0112592 C95.3033089,89.5955308 96.2321642,88.6402552 91.5617533,87.9326171 C86.8913423,87.2249791 82,87.9326171 82,87.9326171 L82,59.2473573 Z" id="Path-2" stroke="#F49064" stroke-width="3" fill="#FED16C" transform="translate(107.796779, 63.000000) scale(-1, -1) translate(-107.796779, -63.000000) "></path>
            </g>
        </g>
    </g>
</svg>