<?xml version="1.0" encoding="UTF-8"?>
<svg width="81px" height="73px" viewBox="0 0 81 73" version="1.1" xmlns="http://www.w3.org/2000/svg" xmlns:xlink="http://www.w3.org/1999/xlink">
    <!-- Generator: Sketch 40.3 (33839) - http://www.bohemiancoding.com/sketch -->
    <title>Survey Response Icon</title>
    <desc>Created with Sketch.</desc>
    <defs>
        <path d="M0,23.5709369 C0,21.9099092 1.1901546,19.9590938 2.67298066,19.206207 L40.5,0 L78.3270193,19.206207 C79.8032658,19.9557531 81,21.9122682 81,23.5709369 L81,69.9924434 C81,71.653471 79.6616741,73 77.9968646,73 L3.0031354,73 C1.34454952,73 0,71.6511121 0,69.9924434 L0,23.5709369 Z" id="path-1"></path>
        <mask id="mask-2" maskContentUnits="userSpaceOnUse" maskUnits="objectBoundingBox" x="0" y="0" width="81" height="73" fill="white">
            <use xlink:href="#path-1"></use>
        </mask>
        <path d="M12.8,10.3764526 C12.8,8.71809879 14.1516851,7.37373737 15.8000504,7.37373737 L65.5999496,7.37373737 C67.2568317,7.37373737 68.6,8.72647763 68.6,10.3697321 L68.6,40.3147731 L52.4295693,46.3977978 L39.9924705,51.0764102 L12.8,40.5503288 L12.8,10.3764526 Z" id="path-3"></path>
        <mask id="mask-4" maskContentUnits="userSpaceOnUse" maskUnits="objectBoundingBox" x="0" y="0" width="55.8" height="43.7026729" fill="white">
            <use xlink:href="#path-3"></use>
        </mask>
        <polygon id="path-5" points="75 35.4679652 55.5259329 42.0891699 40.5479215 47.1817106 7.8 35.7243611 40.5479215 47.1817106"></polygon>
        <mask id="mask-6" maskContentUnits="userSpaceOnUse" maskUnits="objectBoundingBox" x="-1" y="-1" width="69.2" height="13.7137453">
            <rect x="6.8" y="34.4679652" width="69.2" height="13.7137453" fill="white"></rect>
            <use xlink:href="#path-5" fill="black"></use>
        </mask>
    </defs>
    <g id="Page-1" stroke="none" stroke-width="1" fill="none" fill-rule="evenodd">
        <g id="Icons" transform="translate(-372.000000, -105.000000)">
            <g id="Survey-Response-Icon" transform="translate(372.000000, 105.000000)">
                <use id="Rectangle" stroke="#B5B6B4" mask="url(#mask-2)" stroke-width="8" fill="#FFFFFF" xlink:href="#path-1"></use>
                <use id="Rectangle-3" stroke="#B5B6B4" mask="url(#mask-4)" stroke-width="8" fill="#FFFFFF" xlink:href="#path-3"></use>
                <g id="Group-5-Copy" transform="translate(22.000000, 17.000000)" stroke="#B5B6B4">
                    <g id="Group-4" transform="translate(0.627119, 9.779661)" stroke-width="1.5" stroke-linecap="square">
                        <path d="M0.19953775,2.15572034 L0.997688752,2.93961864" id="Line"></path>
                        <path d="M4.22511544,0 L1.1972265,2.74364407" id="Line"></path>
                    </g>
                    <g id="Group-4" transform="translate(0.627119, 17.932203)" stroke-width="1.5" stroke-linecap="square">
                        <path d="M0.19953775,2.15572034 L0.997688752,2.93961864" id="Line"></path>
                        <path d="M4.22511544,0 L1.1972265,2.74364407" id="Line"></path>
                    </g>
                    <g id="Group-4" transform="translate(0.627119, 26.084746)" stroke-width="2" stroke-linecap="square">
                        <path d="M0.19953775,2.15572034 L0.997688752,2.93961864" id="Line"></path>
                        <path d="M4.22511544,0 L1.1972265,2.74364407" id="Line"></path>
                    </g>
                    <g id="Group-4" transform="translate(0.627119, 34.237288)" stroke-width="2" stroke-linecap="square">
                        <path d="M0.19953775,2.15572034 L0.997688752,2.93961864" id="Line"></path>
                        <path d="M4.22511544,0 L1.1972265,2.74364407" id="Line"></path>
                    </g>
                    <g id="Group" transform="translate(0.000000, 0.868383)" fill="#B5B6B5">
                        <path d="M9.70202199,11.9806745 C9.19479894,11.9806745 8.77966102,11.4504715 8.77966102,10.8045877 L8.77966102,10.5925065 C8.77966102,9.93698272 9.19479894,9.40677966 9.70202199,9.40677966 L35.7621162,9.40677966 C36.2693392,9.40677966 36.6837224,9.93698272 36.6837224,10.5925065 L36.6837224,10.8045877 C36.6837224,11.4504715 36.2693392,11.9806745 35.7621162,11.9806745 L9.70202199,11.9806745 Z" id="Fill-87" transform="translate(22.731692, 10.693727) scale(-1, -1) translate(-22.731692, -10.693727) "></path>
                        <path d="M1.21257023,2.57389487 C0.545755831,2.57389487 4.26325641e-14,2.0436918 4.26325641e-14,1.39780807 L4.26325641e-14,1.18572685 C4.26325641e-14,0.530203062 0.545755831,-3.5971226e-14 1.21257023,-3.5971226e-14 L35.4721444,-3.5971226e-14 C36.1389588,-3.5971226e-14 36.6837224,0.530203062 36.6837224,1.18572685 L36.6837224,1.39780807 C36.6837224,2.0436918 36.1389588,2.57389487 35.4721444,2.57389487 L1.21257023,2.57389487 Z" id="Fill-87" transform="translate(18.341861, 1.286947) scale(-1, -1) translate(-18.341861, -1.286947) "></path>
                        <path d="M9.70202199,19.8932085 C9.19479894,19.8932085 8.77966102,19.3630055 8.77966102,18.7171217 L8.77966102,18.5050405 C8.77966102,17.8495167 9.19479894,17.3193137 9.70202199,17.3193137 L35.7621162,17.3193137 C36.2693392,17.3193137 36.6837224,17.8495167 36.6837224,18.5050405 L36.6837224,18.7171217 C36.6837224,19.3630055 36.2693392,19.8932085 35.7621162,19.8932085 L9.70202199,19.8932085 Z" id="Fill-87" transform="translate(22.731692, 18.606261) scale(-1, -1) translate(-22.731692, -18.606261) "></path>
                        <path d="M9.70202199,27.8057425 C9.19479894,27.8057425 8.77966102,27.2755395 8.77966102,26.6296557 L8.77966102,26.4175745 C8.77966102,25.7620507 9.19479894,25.2318477 9.70202199,25.2318477 L35.7621162,25.2318477 C36.2693392,25.2318477 36.6837224,25.7620507 36.6837224,26.4175745 L36.6837224,26.6296557 C36.6837224,27.2755395 36.2693392,27.8057425 35.7621162,27.8057425 L9.70202199,27.8057425 Z" id="Fill-87" transform="translate(22.731692, 26.518795) scale(-1, -1) translate(-22.731692, -26.518795) "></path>
                        <path d="M9.70202199,35.811183 C9.19479894,35.811183 8.77966102,35.2809799 8.77966102,34.6350962 L8.77966102,34.423015 C8.77966102,33.7674912 9.19479894,33.2372881 9.70202199,33.2372881 L35.7621162,33.2372881 C36.2693392,33.2372881 36.6837224,33.7674912 36.6837224,34.423015 L36.6837224,34.6350962 C36.6837224,35.2809799 36.2693392,35.811183 35.7621162,35.811183 L9.70202199,35.811183 Z" id="Fill-87" transform="translate(22.731692, 34.524236) scale(-1, -1) translate(-22.731692, -34.524236) "></path>
                    </g>
                </g>
                <path d="M12.9,41.2971048 C12.9,39.6351551 14.2516851,38.2878788 15.9000504,38.2878788 L65.6999496,38.2878788 C67.3568317,38.2878788 68.7471207,39.6270011 68.805445,41.2845169 L69.6,63.8649417 L42.5,54.6528205 L12.9,63.8649417 L12.9,41.2971048 Z" id="Rectangle-3" fill="#FFFFFF" transform="translate(41.250000, 51.076410) rotate(-180.000000) translate(-41.250000, -51.076410) "></path>
                <g id="Rectangle-3">
                    <use fill="#FFFFFF" fill-rule="evenodd" xlink:href="#path-5"></use>
                    <use stroke="#B5B6B4" mask="url(#mask-6)" stroke-width="2" xlink:href="#path-5"></use>
                </g>
            </g>
        </g>
    </g>
</svg>