<?xml version="1.0" encoding="UTF-8"?>
<svg width="1054px" height="286px" viewBox="0 0 1054 286" version="1.1" xmlns="http://www.w3.org/2000/svg" xmlns:xlink="http://www.w3.org/1999/xlink">
    <!-- Generator: Sketch 46.2 (44496) - http://www.bohemiancoding.com/sketch -->
    <title>kickuplogo-(1)</title>
    <desc>Created with Sketch.</desc>
    <defs>
        <polygon id="path-1" points="0.06 239.898775 0.06 0.28484298 153.183215 0.28484298 153.183215 239.898775"></polygon>
        <polygon id="path-3" points="0.06 239.898775 0.06 0.28484298 153.183215 0.28484298 153.183215 239.898775"></polygon>
    </defs>
    <g id="Page-1" stroke="none" stroke-width="1" fill="none" fill-rule="evenodd">
        <g id="logo">
            <g id="kickuplogo-(1)">
                <path d="M152.631,134.837 C151.569,135.082 153.732,134.613 152.631,134.837" id="Fill-1" fill="#E8895A" fill-rule="nonzero"></path>
                <polyline id="Fill-2" fill="#E8895A" fill-rule="nonzero" points="229.341 2.977 212.686 0.184 210.224 14.864 226.879 17.657 229.341 2.977"></polyline>
                <path d="M227.823,62.397 C221.657,61.356 215.827,65.51 214.8,71.676 C213.773,77.843 217.939,83.686 224.104,84.727 C230.27,85.769 233.988,63.438 227.823,62.397" id="Fill-3" fill="#E8895A" fill-rule="nonzero"></path>
                <g id="Group-7" transform="translate(0.000000, 26.000000)">
                    <g id="Fill-4-Clipped">
                        <mask id="mask-2" fill="white">
                            <use xlink:href="#path-1"></use>
                        </mask>
                        <g id="path-2"></g>
                        <path d="M89.159,60.479 L121.196,96.391 L122.593,72.543 C139.08,69.871 152.104,56.115 153.12,38.787 C154.295,18.728 138.949,1.519 118.847,0.348 C98.745,-0.825 81.493,14.482 80.318,34.542 C79.74,44.407 83.174,53.57 89.191,60.487 L89.159,60.479" id="Fill-4" fill="#E8895A" fill-rule="nonzero" mask="url(#mask-2)"></path>
                    </g>
                    <g id="Fill-6-Clipped">
                        <mask id="mask-4" fill="white">
                            <use xlink:href="#path-3"></use>
                        </mask>
                        <g id="path-2"></g>
                        <path d="M79.795,183.84 C75.69,193.851 71.629,204.715 71.629,204.715 L15.747,186.056 L0,235.275 L0.08,235.303 C4.86,236.974 10.178,235.498 13.406,231.604 L34.478,204.642 L36.323,220.123 L77.185,238.846 C82.365,241.221 88.507,239.465 91.64,234.713 L108.858,208.441 C102.138,206.965 96.833,204.767 92.864,201.818 C87.256,197.651 83.011,191.306 79.795,183.84" id="Fill-6" fill="#E8895A" fill-rule="nonzero" mask="url(#mask-4)"></path>
                    </g>
                </g>
                <path d="M190.058,160.658 L193.013,168.568 L203.759,155.541 L214.937,88.877 C209.294,84.792 206.098,77.747 207.316,70.43 C208.532,63.13 213.771,57.44 220.544,55.437 L225.404,26.453 L208.749,23.66 L187.104,152.748 L190.058,160.658" id="Fill-8" fill="#E8895A" fill-rule="nonzero"></path>
                <path d="M20.595,184.821 C20.595,184.821 35.563,131.386 78.13,133.868 C78.13,133.868 73.636,204.078 97.389,221.728 C114.255,234.261 164.492,227.072 164.492,227.072 L189.874,285.999 L241.655,263.525 L241.622,263.438 C239.596,258.331 234.584,255.035 229.082,255.189 L190.864,256.458 L203.24,245.198 L186.357,196.209 C184.825,191.762 180.602,188.809 175.898,188.895 L106.937,190.162 L135.027,181.875 L145.681,117.101 L152.631,134.837 C167.651,131.366 178.179,124.205 185.439,116.798 L191.79,78.928 C185.592,87.659 164.689,108.138 129.267,106.064 C129.262,106.069 129.259,106.071 129.254,106.076 L127.222,140.762 C127.222,140.762 94.329,104.028 94.203,103.971 C27.29,100.068 8.794,154.309 8.794,154.309 L26.744,154.647 C21.657,156.451 7.246,165.921 7.246,165.921 C4.512,173.405 6.268,181.461 11.58,186.75 C14.367,189.524 19.145,188.472 20.595,184.821" id="Fill-9" fill="#E8895A" fill-rule="nonzero"></path>
                <path d="M374.652,121.126 C380.632,115.836 382.242,113.076 382.242,110.086 C382.242,105.716 379.022,104.336 368.213,103.186 L368.213,94.216 L420.422,94.216 L420.422,103.186 C412.602,104.336 407.312,105.716 401.332,111.696 L374.883,136.536 L425.021,211.974 L425.021,218.184 L380.862,218.184 L339.463,153.095 L374.652,121.126 Z M295.304,62.017 L282.654,55.577 L282.654,48.677 L330.724,38.098 L337.854,38.098 L337.854,200.245 C337.854,207.604 341.533,208.524 350.732,209.214 L350.732,218.184 L282.424,218.184 L282.424,209.214 C291.624,208.524 295.304,207.604 295.304,200.245 L295.304,62.017 L295.304,62.017 Z" id="Fill-10" fill="#E8895A" fill-rule="nonzero"></path>
                <path d="M446.218,60.407 C446.218,48.907 454.498,39.247 468.758,39.247 C482.558,39.247 491.297,48.907 491.297,60.407 C491.297,71.907 482.558,81.796 468.758,81.796 C454.498,81.796 446.218,71.907 446.218,60.407 Z M489.457,200.245 C489.457,207.604 493.137,208.524 502.337,209.214 L502.337,218.184 L434.284,218.184 L434.284,209.214 C443.484,208.524 447.138,207.604 447.138,200.245 L447.138,119.516 L434.488,111.696 L434.488,105.256 L482.327,91.916 L489.457,91.916 L489.457,200.245 L489.457,200.245 Z" id="Fill-11" fill="#E8895A" fill-rule="nonzero"></path>
                <path d="M579.192,191.734 C592.763,191.734 602.422,187.135 609.782,176.555 L614.842,179.775 C607.252,207.834 588.622,220.484 562.863,220.484 C530.894,220.484 506.284,197.714 506.284,159.995 C506.284,121.126 531.124,91.916 569.303,91.916 C592.532,91.916 611.392,100.886 611.392,121.126 C611.392,129.866 606.332,135.616 601.272,137.915 L579.423,137.915 C580.112,132.855 580.343,128.946 580.343,124.806 C580.343,111.466 576.663,102.266 565.623,102.266 C551.363,102.266 543.083,120.436 543.083,144.125 C543.083,173.565 556.193,191.734 579.192,191.734" id="Fill-12" fill="#E8895A" fill-rule="nonzero"></path>
                <path d="M713.282,121.126 C719.262,115.836 720.872,113.076 720.872,110.086 C720.872,105.716 717.652,104.336 706.843,103.186 L706.843,94.216 L759.052,94.216 L759.052,103.186 C751.231,104.336 745.941,105.716 739.962,111.696 L713.513,136.536 L763.651,211.974 L763.651,218.184 L719.492,218.184 L678.093,153.095 L713.282,121.126 Z M633.934,62.017 L621.284,55.577 L621.284,48.677 L669.354,38.098 L676.483,38.098 L676.483,200.245 C676.483,207.604 680.163,208.524 689.362,209.214 L689.362,218.184 L621.054,218.184 L621.054,209.214 C630.254,208.524 633.934,207.604 633.934,200.245 L633.934,62.017 L633.934,62.017 Z" id="Fill-13" fill="#E8895A" fill-rule="nonzero"></path>
                <path d="M898.558,191.734 C898.558,199.554 899.018,203.004 906.378,203.234 L911.897,203.464 L911.897,212.434 L863.368,220.484 L855.318,220.484 L856.009,198.174 C847.729,208.754 835.539,220.484 815.069,220.484 C794.6,220.484 780.34,208.294 780.34,181.845 L780.34,125.496 C780.34,118.826 778.729,113.996 771.37,112.156 L767.92,111.006 L767.92,102.726 L816.449,92.146 L824.039,92.146 L822.659,121.356 L822.659,177.705 C822.659,189.434 827.259,196.104 838.299,196.104 C845.198,196.104 849.799,194.265 856.009,191.504 L856.009,125.496 C856.009,118.826 854.398,113.996 847.269,112.156 L843.818,111.006 L843.818,102.726 L892.118,92.146 L899.708,92.146 L898.558,121.356 L898.558,191.734" id="Fill-14" fill="#E8895A" fill-rule="nonzero"></path>
                <path d="M1010.19,161.375 C1010.19,131.016 999.376,116.986 981.896,116.986 C977.066,116.986 972.467,118.136 968.326,120.896 L968.326,185.525 C968.326,200.475 972.467,209.674 984.656,209.674 C1001.22,209.674 1010.19,188.515 1010.19,161.375 Z M925.777,119.516 L913.128,111.696 L913.128,105.256 L961.197,91.916 L969.247,91.916 L968.326,114.226 C974.767,103.876 987.416,91.916 1006.97,91.916 C1034.11,91.916 1053.42,110.776 1053.42,148.496 C1053.42,195.644 1024.68,220.484 988.336,220.484 C979.597,220.484 972.236,218.874 968.326,215.654 L968.326,248.083 C968.326,256.363 972.467,256.823 986.036,257.973 L986.036,266.943 L912.897,266.943 L912.897,257.973 C922.098,257.283 925.777,256.363 925.777,249.003 L925.777,119.516 L925.777,119.516 Z" id="Fill-15" fill="#E8895A" fill-rule="nonzero"></path>
            </g>
        </g>
    </g>
</svg>