<?xml version="1.0" encoding="UTF-8"?>
<svg width="78px" height="99px" viewBox="0 0 78 99" version="1.1" xmlns="http://www.w3.org/2000/svg" xmlns:xlink="http://www.w3.org/1999/xlink">
    <!-- Generator: Sketch 46.2 (44496) - http://www.bohemiancoding.com/sketch -->
    <title>Address Book Icon</title>
    <desc>Created with Sketch.</desc>
    <defs>
        <rect id="path-1" x="69" y="16" width="8" height="12" rx="2"></rect>
        <rect id="path-2" x="68.5" y="34" width="8" height="12" rx="2"></rect>
        <rect id="path-3" x="68" y="52" width="8" height="12" rx="2"></rect>
        <rect id="path-4" x="67.5" y="70" width="8" height="12" rx="2"></rect>
    </defs>
    <g id="Page-1" stroke="none" stroke-width="1" fill="none" fill-rule="evenodd">
        <g id="Icons" transform="translate(-602.000000, -202.000000)">
            <g id="Address-Book-Icon" transform="translate(603.000000, 204.000000)">
                <g id="Rectangle-13">
                    <use fill="#FFFFFF" fill-rule="evenodd" xlink:href="#path-1"></use>
                    <rect stroke="#B5B6B4" stroke-width="2" x="70" y="17" width="6" height="10" rx="2"></rect>
                </g>
                <g id="Rectangle-13">
                    <use fill="#FFFFFF" fill-rule="evenodd" xlink:href="#path-2"></use>
                    <rect stroke="#B5B6B4" stroke-width="2" x="69.5" y="35" width="6" height="10" rx="2"></rect>
                </g>
                <g id="Rectangle-13">
                    <use fill="#FFFFFF" fill-rule="evenodd" xlink:href="#path-3"></use>
                    <rect stroke="#B5B6B4" stroke-width="2" x="69" y="53" width="6" height="10" rx="2"></rect>
                </g>
                <g id="Rectangle-13">
                    <use fill="#FFFFFF" fill-rule="evenodd" xlink:href="#path-4"></use>
                    <rect stroke="#B5B6B4" stroke-width="2" x="68.5" y="71" width="6" height="10" rx="2"></rect>
                </g>
                <path d="M9.0624986,11.0535665 L63.0624986,11.4285671 L63.0624986,11.4285671 C68.0085522,11.4629148 72,15.4821773 72,20.4283501 L72,87 L72,87 C72,91.9705627 67.9705627,96 63,96 L9,96 L9,96 C4.02943725,96 -1.16763846e-15,91.9705627 -1.77635684e-15,87 L0,54.9954815 L0,20.0533495 L0,20.0533495 C-6.08718376e-16,15.0827867 4.02943725,11.0533495 9,11.0533495 C9.02083305,11.0533495 9.04166605,11.0534218 9.0624986,11.0535665 Z" id="Rectangle-10" fill="#FFFFFF"></path>
                <path d="M69,14.5 L69,94 L2.5,94 C28.1225656,92.0727725 46.1225656,84.9061058 56.5,72.5 C66.8774344,60.0938942 71.0441011,40.7605608 69,14.5 Z" id="Triangle" fill="#EEEEEE"></path>
                <path d="M70.5,11.0530179 L6.06627243,11.0530179 C3.02209081,11.0530179 1.5,9.21084829 1.5,5.52650897 C1.5,1.84216966 3.02209081,1.69320711e-13 6.06627243,1.77635684e-15 L66,0" id="Line-6" stroke="#B5B6B4" stroke-width="4" stroke-linecap="square"></path>
                <path d="M1.5,7 L2,87 C2,89 2.66666667,90.6666667 4,92 C5.33333333,93.3333333 7,94.1666667 9,94.5 L68,94.5 C69.6666667,94.5 70.5,94.3333333 70.5,94 C70.5,93.6666667 70.5,93 70.5,92 L70.5,11.5" id="Line-7" stroke="#B5B6B4" stroke-width="4" stroke-linecap="square"></path>
                <path d="M6.5,3.5 L68.5,3.5" id="Line-8" stroke="#B5B6B4" stroke-linecap="square"></path>
                <path d="M5.5,5.5 L69.5,5.5" id="Line-8" stroke="#B5B6B4" stroke-linecap="square"></path>
                <path d="M6.5,7.5 L70.5,7.5" id="Line-8" stroke="#B5B6B4" stroke-linecap="square"></path>
                <g id="User-Icon" transform="translate(17.000000, 24.000000)">
                    <path d="M19,38 C29.4934102,38 38,29.4934102 38,19 C38,15.1982639 35.83652,10.4312385 31.50956,4.69892353 C35.0602945,13.9500274 34.5571078,21.2170528 30,26.5 C25.4428922,31.7829472 17.6726086,34.1071598 6.68914922,33.4726378 C11.7654291,36.4908793 15.8690461,38 19,38 Z" id="Oval-3" fill="#EEEEEE"></path>
                    <path d="M26,36.5 C24,37.5 22.2600842,38 19.244898,38 C16.2297118,38 14.7469304,37.7175989 11.5,36.5 C9.33537972,35.6882674 7.66871305,34.5216007 6.5,33 C8.49319728,25.6666667 12.7414966,22 19.244898,22 C25.7482993,22 29.6666667,25.8333333 31,33.5 C29,34.8333333 27.3333333,35.8333333 26,36.5 Z" id="Line-9" stroke="#B5B6B4" stroke-width="4" fill="#FFFFFF" stroke-linecap="square"></path>
                    <circle id="Oval-3" stroke="#B5B6B4" stroke-width="4" fill="#FFFFFF" cx="19" cy="15" r="7"></circle>
                    <circle id="Oval-3" stroke="#B5B6B4" stroke-width="4" cx="19" cy="19" r="19"></circle>
                </g>
            </g>
        </g>
    </g>
</svg>