<?xml version="1.0" encoding="UTF-8"?>
<svg width="160px" height="113px" viewBox="0 0 160 113" version="1.1" xmlns="http://www.w3.org/2000/svg" xmlns:xlink="http://www.w3.org/1999/xlink">
    <!-- Generator: Sketch 42 (36781) - http://www.bohemiancoding.com/sketch -->
    <title>All Table</title>
    <desc>Created with Sketch.</desc>
    <defs>
        <rect id="path-1" x="2" y="4" width="150" height="103"></rect>
        <mask id="mask-2" maskContentUnits="userSpaceOnUse" maskUnits="objectBoundingBox" x="-5" y="-5" width="160" height="113">
            <rect x="-3" y="-1" width="160" height="113" fill="white"></rect>
            <use xlink:href="#path-1" fill="black"></use>
        </mask>
        <rect id="path-3" x="52" y="26" width="25" height="25"></rect>
        <mask id="mask-4" maskContentUnits="userSpaceOnUse" maskUnits="objectBoundingBox" x="0" y="0" width="25" height="25" fill="white">
            <use xlink:href="#path-3"></use>
        </mask>
        <rect id="path-5" x="78" y="26" width="25" height="25"></rect>
        <mask id="mask-6" maskContentUnits="userSpaceOnUse" maskUnits="objectBoundingBox" x="0" y="0" width="25" height="25" fill="white">
            <use xlink:href="#path-5"></use>
        </mask>
        <rect id="path-7" x="52" y="0" width="25" height="25"></rect>
        <mask id="mask-8" maskContentUnits="userSpaceOnUse" maskUnits="objectBoundingBox" x="0" y="0" width="25" height="25" fill="white">
            <use xlink:href="#path-7"></use>
        </mask>
        <rect id="path-9" x="78" y="0" width="25" height="25"></rect>
        <mask id="mask-10" maskContentUnits="userSpaceOnUse" maskUnits="objectBoundingBox" x="0" y="0" width="25" height="25" fill="white">
            <use xlink:href="#path-9"></use>
        </mask>
        <rect id="path-11" x="78" y="52" width="25" height="25"></rect>
        <mask id="mask-12" maskContentUnits="userSpaceOnUse" maskUnits="objectBoundingBox" x="0" y="0" width="25" height="25" fill="white">
            <use xlink:href="#path-11"></use>
        </mask>
        <rect id="path-13" x="52" y="78" width="25" height="25"></rect>
        <mask id="mask-14" maskContentUnits="userSpaceOnUse" maskUnits="objectBoundingBox" x="0" y="0" width="25" height="25" fill="white">
            <use xlink:href="#path-13"></use>
        </mask>
        <rect id="path-15" x="78" y="78" width="25" height="25"></rect>
        <mask id="mask-16" maskContentUnits="userSpaceOnUse" maskUnits="objectBoundingBox" x="0" y="0" width="25" height="25" fill="white">
            <use xlink:href="#path-15"></use>
        </mask>
        <rect id="path-17" x="52" y="52" width="25" height="25"></rect>
        <mask id="mask-18" maskContentUnits="userSpaceOnUse" maskUnits="objectBoundingBox" x="0" y="0" width="25" height="25" fill="white">
            <use xlink:href="#path-17"></use>
        </mask>
    </defs>
    <g id="Page-1" stroke="none" stroke-width="1" fill="none" fill-rule="evenodd">
        <g id="Artboard" transform="translate(-272.000000, -200.000000)">
            <g id="All-Table" transform="translate(275.000000, 201.000000)">
                <use id="Rectangle" stroke="#EEEEEE" mask="url(#mask-2)" stroke-width="10" xlink:href="#path-1"></use>
                <g id="Horizontal-bars" transform="translate(0.000000, 28.000000)" stroke="#EEEEEE" stroke-linecap="square">
                    <path d="M2.5,1.5 L151.5,1.5" id="Line"></path>
                    <path d="M1.5,27.5 L151.5,27.5" id="Line"></path>
                    <path d="M0.5,53.5 L151.5,53.5" id="Line"></path>
                </g>
                <g id="Vertical-Bars" transform="translate(38.000000, 0.000000)" stroke="#EEEEEE" stroke-linecap="square">
                    <path d="M1.5,0.529411765 L1.5,106.411765" id="Line"></path>
                    <path d="M31.5,0.529411765 L31.5,107.470588" id="Line"></path>
                    <path d="M62.5,0.529411765 L62.5,107.470588" id="Line"></path>
                    <path d="M88.5,0.529411765 L88.5,107.470588" id="Line"></path>
                </g>
                <g id="Score-Squares" transform="translate(49.000000, 4.000000)" stroke="#979797" stroke-opacity="0.434810915" stroke-width="2">
                    <use id="Rectangle-2" mask="url(#mask-4)" fill="#82CCB2" xlink:href="#path-3"></use>
                    <use id="Rectangle-2" mask="url(#mask-6)" fill="#82CCB2" xlink:href="#path-5"></use>
                    <use id="Rectangle-2" mask="url(#mask-8)" fill="#82CCB2" xlink:href="#path-7"></use>
                    <use id="Rectangle-2" mask="url(#mask-10)" fill="#1FAF84" xlink:href="#path-9"></use>
                    <use id="Rectangle-2" mask="url(#mask-12)" fill="#82CCB2" xlink:href="#path-11"></use>
                    <use id="Rectangle-2" mask="url(#mask-14)" fill="#FFD299" xlink:href="#path-13"></use>
                    <use id="Rectangle-2" mask="url(#mask-16)" fill="#F3F9C5" xlink:href="#path-15"></use>
                    <use id="Rectangle-2" mask="url(#mask-18)" fill="#F3F9C5" xlink:href="#path-17"></use>
                </g>
                <rect id="Rectangle-2" fill="#EEEEEE" x="0" y="1" width="155" height="29"></rect>
                <g id="Text-Lines" transform="translate(6.000000, 14.000000)" stroke="#CACACA" stroke-width="3" stroke-linecap="square">
                    <path d="M0.5,1.5 L28.5,1.5" id="Line"></path>
                    <path d="M0.5,30.5 L28.5,30.5" id="Line"></path>
                    <path d="M0.5,55.5 L28.5,55.5" id="Line"></path>
                    <path d="M0.5,80.5 L28.5,80.5" id="Line"></path>
                    <path d="M38.5,1.5 L57.5,1.5" id="Line"></path>
                    <path d="M38.5,30.5 L57.5,30.5" id="Line"></path>
                    <path d="M38.5,55.5 L57.5,55.5" id="Line"></path>
                    <path d="M38.5,80.5 L57.5,80.5" id="Line"></path>
                    <path d="M68.5,80.5 L87.5,80.5" id="Line"></path>
                    <path d="M68.5,55.5 L87.5,55.5" id="Line"></path>
                    <path d="M68.5,30.5 L87.5,30.5" id="Line"></path>
                    <path d="M69.5,1.5 L88.5,1.5" id="Line"></path>
                    <path d="M98.5,1.5 L117.5,1.5" id="Line"></path>
                    <path d="M124.5,1.5 L143.5,1.5" id="Line"></path>
                </g>
            </g>
        </g>
    </g>
</svg>