<?xml version="1.0" encoding="UTF-8"?>
<svg width="71px" height="94px" viewBox="0 0 71 94" version="1.1" xmlns="http://www.w3.org/2000/svg" xmlns:xlink="http://www.w3.org/1999/xlink">
    <!-- Generator: Sketch 46.2 (44496) - http://www.bohemiancoding.com/sketch -->
    <title>Award Icon</title>
    <desc>Created with Sketch.</desc>
    <defs>
        <circle id="path-1" cx="31.5" cy="31.5" r="31.5"></circle>
        <filter x="-7.1%" y="-7.1%" width="114.3%" height="114.3%" filterUnits="objectBoundingBox" id="filter-2">
            <feMorphology radius="1" operator="erode" in="SourceAlpha" result="shadowSpreadInner1"></feMorphology>
            <feOffset dx="-4" dy="-1" in="shadowSpreadInner1" result="shadowOffsetInner1"></feOffset>
            <feComposite in="shadowOffsetInner1" in2="SourceAlpha" operator="arithmetic" k2="-1" k3="1" result="shadowInnerInner1"></feComposite>
            <feColorMatrix values="0 0 0 0 0.933333333   0 0 0 0 0.933333333   0 0 0 0 0.933333333  0 0 0 1 0" type="matrix" in="shadowInnerInner1"></feColorMatrix>
        </filter>
    </defs>
    <g id="Page-1" stroke="none" stroke-width="1" fill="none" fill-rule="evenodd">
        <g id="Icons" transform="translate(-723.000000, -208.000000)">
            <g id="Award-Icon" transform="translate(723.000000, 210.000000)">
                <g id="Ribbon---Right" transform="translate(50.829954, 64.547468) rotate(-15.000000) translate(-50.829954, -64.547468) translate(35.829954, 40.047468)">
                    <polygon id="Rectangle-12" fill="#EEEEEE" points="14 0.0670223619 29.0535911 0.0670223619 29.0535911 48.0670224 14.5535911 40.2124769"></polygon>
                    <polygon id="Rectangle-12" fill="#FFFFFF" transform="translate(7.526796, 24.000000) scale(-1, 1) translate(-7.526796, -24.000000) " points="0 0 15.0535911 0 15.0535911 48 0.553591131 40.1454545"></polygon>
                    <path d="M2.05359113,2.06702236 L2.05359113,44.7090546 L14.5535911,37.9378947 L27.0535911,44.7090546 L27.0535911,2.06702236 L2.05359113,2.06702236 Z" id="Rectangle-12" stroke="#B5B6B4" stroke-width="4"></path>
                </g>
                <g id="Ribbon---Left" transform="translate(20.829954, 64.547468) rotate(15.000000) translate(-20.829954, -64.547468) translate(5.829954, 40.047468)">
                    <polygon id="Rectangle-12" fill="#EEEEEE" points="14 0.0670223619 29.0535911 0.0670223619 29.0535911 48.0670224 14.5535911 40.2124769"></polygon>
                    <polygon id="Rectangle-12" fill="#FFFFFF" transform="translate(7.526796, 24.000000) scale(-1, 1) translate(-7.526796, -24.000000) " points="0 0 15.0535911 0 15.0535911 48 0.553591131 40.1454545"></polygon>
                    <path d="M2.05359113,2.06702236 L2.05359113,44.7090546 L14.5535911,37.9378947 L27.0535911,44.7090546 L27.0535911,2.06702236 L2.05359113,2.06702236 Z" id="Rectangle-12" stroke="#B5B6B4" stroke-width="4"></path>
                </g>
                <g id="Group-7" transform="translate(3.000000, 0.000000)">
                    <g id="Oval-2">
                        <use fill="#FFFFFF" fill-rule="evenodd" xlink:href="#path-1"></use>
                        <use fill="black" fill-opacity="1" filter="url(#filter-2)" xlink:href="#path-1"></use>
                        <use stroke="#B5B6B4" stroke-width="4" xlink:href="#path-1"></use>
                    </g>
                    <polygon id="Star" stroke="#B5B6B4" stroke-width="4" fill="#EEEEEE" points="31.5658055 40.395898 23.1816766 44.8036954 24.7829027 35.4678307 18 28.8561346 27.3737411 27.4940503 31.5658055 19 35.7578699 27.4940503 45.131611 28.8561346 38.3487082 35.4678307 39.9499344 44.8036954"></polygon>
                </g>
            </g>
        </g>
    </g>
</svg>