<?xml version="1.0" encoding="UTF-8"?>
<svg width="81px" height="100px" viewBox="0 0 81 100" version="1.1" xmlns="http://www.w3.org/2000/svg" xmlns:xlink="http://www.w3.org/1999/xlink">
    <!-- Generator: Sketch 46.2 (44496) - http://www.bohemiancoding.com/sketch -->
    <title>Poll Icon</title>
    <desc>Created with Sketch.</desc>
    <defs>
        <path d="M14.0243585,17.9965137 C14.0243585,17.9965137 15.127674,14.5566936 21.8372267,10.7957102 C31.284587,5.50007175 48.8372281,3.79571031 58.8372274,9.79571036 C67.683181,15.1032829 67.7390131,18.7539773 67.7390131,18.7539773 L67.7589167,18.8551812 C68.0783085,20.4791906 66.9913295,21.7906586 65.3323445,21.7844318 L16.8947488,21.6026271 C15.2351981,21.5963982 13.9399463,20.2527648 14.0021499,18.5901276 L14.0243585,17.9965137 Z" id="path-1"></path>
    </defs>
    <g id="Page-1" stroke="none" stroke-width="1" fill="none" fill-rule="evenodd">
        <g id="Icons" transform="translate(-138.000000, -77.000000)">
            <g id="Poll-Icon" transform="translate(138.000000, 78.000000)">
                <g id="Group-2" transform="translate(0.000000, 13.000000)">
                    <rect id="Rectangle-8" fill="#FFFFFF" x="4" y="2" width="74" height="82"></rect>
                    <path d="M4.88997905,3.3571133 C4.44053571,3.3571133 4.05945431,3.6840232 4.05945431,4.0738004 L4.05945431,81.7903445 C4.05945431,82.1801217 4.44053571,82.5070316 4.88997905,82.5070316 L76.1100209,82.5070316 C76.5609188,82.5070316 76.9420002,82.1801217 76.9420002,81.7903445 L76.9420002,4.0738004 C76.9420002,3.6840232 76.5609188,3.3571133 76.1100209,3.3571133 L4.88997905,3.3571133 L4.88997905,3.3571133 Z M76.1100209,85.8641449 L4.88997905,85.8641449 C2.29222566,85.8641449 0.178823823,84.0284201 0.178823823,81.7903445 L0.178823823,4.0738004 C0.178823823,1.82315142 2.29222566,0 4.88997905,0 L76.1100209,0 C78.7077743,0 80.8211762,1.82315142 80.8211762,4.0738004 L80.8211762,81.7903445 C80.8211762,84.0284201 78.7077743,85.8641449 76.1100209,85.8641449 L76.1100209,85.8641449 Z" id="Fill-86" fill="#B5B6B4"></path>
                </g>
                <g id="Rectangle-1">
                    <use fill="#B5B6B4" fill-rule="evenodd" xlink:href="#path-1"></use>
                    <path stroke="#FFFFFF" stroke-width="1" d="M14.521135,18.0920252 L14.5018003,18.6088208 C14.4502407,19.9869572 15.5178392,21.0974555 16.8966254,21.1026306 L65.3342211,21.2844353 C66.6781821,21.2894797 67.52668,20.2653761 67.2683146,18.9516673 L67.2390715,18.7616232 C67.2381153,18.6990996 67.2092708,18.5300719 67.1183092,18.2604677 C66.9548998,17.7761324 66.6598607,17.2052477 66.1977415,16.5547574 C64.8414135,14.645557 62.3945359,12.5131908 58.5799795,10.2244568 C49.3875189,4.70898 32.1982677,5.56111005 22.0817082,11.2318625 C19.1978037,12.8484109 17.1511286,14.5127244 15.7979517,16.1276132 C15.3315093,16.6842682 14.9849377,17.1923192 14.7403818,17.6399853 C14.6273313,17.8469271 14.5572769,17.9996312 14.521135,18.0920252 Z"></path>
                </g>
                <g id="Group-3" transform="translate(34.000000, 0.000000)">
                    <path d="M8,16 C12.418278,16 16,12.418278 16,8 C16,3.581722 12.418278,0 8,0 C3.581722,0 0,3.581722 0,8 C0,12.418278 3.581722,16 8,16 Z" id="Oval-1" stroke="#FFFFFF" fill="#B5B6B4"></path>
                    <path d="M8,12.3076923 C10.3790728,12.3076923 12.3076923,10.3790728 12.3076923,8 C12.3076923,5.62092723 10.3790728,3.69230769 8,3.69230769 C5.62092723,3.69230769 3.69230769,5.62092723 3.69230769,8 C3.69230769,10.3790728 5.62092723,12.3076923 8,12.3076923 Z" id="Oval-1" fill="#FFFFFF"></path>
                </g>
                <g id="Group-5" transform="translate(12.000000, 30.000000)" stroke="#B5B6B4">
                    <g id="Group-4" transform="translate(1.000000, 14.000000)" stroke-width="2" stroke-linecap="square">
                        <path d="M0.318181818,3.4375 L1.59090909,4.6875" id="Line"></path>
                        <path d="M6.73734625,0 L1.90909091,4.375" id="Line"></path>
                    </g>
                    <g id="Group-4" transform="translate(1.000000, 27.000000)" stroke-width="2" stroke-linecap="square">
                        <path d="M0.318181818,3.4375 L1.59090909,4.6875" id="Line"></path>
                        <path d="M6.73734625,0 L1.90909091,4.375" id="Line"></path>
                    </g>
                    <g id="Group-4" transform="translate(1.000000, 40.000000)" stroke-width="2" stroke-linecap="square">
                        <path d="M0.318181818,3.4375 L1.59090909,4.6875" id="Line"></path>
                        <path d="M6.73734625,0 L1.90909091,4.375" id="Line"></path>
                    </g>
                    <g id="Group-4" transform="translate(1.000000, 53.000000)" stroke-width="2" stroke-linecap="square">
                        <path d="M0.318181818,3.4375 L1.59090909,4.6875" id="Line"></path>
                        <path d="M6.73734625,0 L1.90909091,4.375" id="Line"></path>
                    </g>
                    <g id="Group" transform="translate(0.000000, -0.209877)" fill="#B5B6B4">
                        <path d="M15.4707918,19.1043188 C14.6619767,19.1043188 14,18.2588599 14,17.2289372 L14,16.8907536 C14,15.8454589 14.6619767,15 15.4707918,15 L57.0260772,15 C57.8348923,15 58.4956654,15.8454589 58.4956654,16.8907536 L58.4956654,17.2289372 C58.4956654,18.2588599 57.8348923,19.1043188 57.0260772,19.1043188 L15.4707918,19.1043188 Z" id="Fill-87" transform="translate(36.247833, 17.052159) scale(-1, -1) translate(-36.247833, -17.052159) "></path>
                        <path d="M1.93355793,4.10431884 C0.870259298,4.10431884 2.84217094e-14,3.2588599 2.84217094e-14,2.2289372 L2.84217094e-14,1.89075362 C2.84217094e-14,0.845458937 0.870259298,4.08562073e-14 1.93355793,4.08562073e-14 L56.5636898,4.08562073e-14 C57.6269884,4.08562073e-14 58.4956654,0.845458937 58.4956654,1.89075362 L58.4956654,2.2289372 C58.4956654,3.2588599 57.6269884,4.10431884 56.5636898,4.10431884 L1.93355793,4.10431884 Z" id="Fill-87" transform="translate(29.247833, 2.052159) scale(-1, -1) translate(-29.247833, -2.052159) "></path>
                        <path d="M15.4707918,31.7216028 C14.6619767,31.7216028 14,30.8761439 14,29.8462211 L14,29.5080376 C14,28.4627429 14.6619767,27.617284 15.4707918,27.617284 L57.0260772,27.617284 C57.8348923,27.617284 58.4956654,28.4627429 58.4956654,29.5080376 L58.4956654,29.8462211 C58.4956654,30.8761439 57.8348923,31.7216028 57.0260772,31.7216028 L15.4707918,31.7216028 Z" id="Fill-87" transform="translate(36.247833, 29.669443) scale(-1, -1) translate(-36.247833, -29.669443) "></path>
                        <path d="M15.4707918,44.3388867 C14.6619767,44.3388867 14,43.4934278 14,42.4635051 L14,42.1253215 C14,41.0800268 14.6619767,40.2345679 15.4707918,40.2345679 L57.0260772,40.2345679 C57.8348923,40.2345679 58.4956654,41.0800268 58.4956654,42.1253215 L58.4956654,42.4635051 C58.4956654,43.4934278 57.8348923,44.3388867 57.0260772,44.3388867 L15.4707918,44.3388867 Z" id="Fill-87" transform="translate(36.247833, 42.286727) scale(-1, -1) translate(-36.247833, -42.286727) "></path>
                        <path d="M15.4707918,57.1043188 C14.6619767,57.1043188 14,56.2588599 14,55.2289372 L14,54.8907536 C14,53.8454589 14.6619767,53 15.4707918,53 L57.0260772,53 C57.8348923,53 58.4956654,53.8454589 58.4956654,54.8907536 L58.4956654,55.2289372 C58.4956654,56.2588599 57.8348923,57.1043188 57.0260772,57.1043188 L15.4707918,57.1043188 Z" id="Fill-87" transform="translate(36.247833, 55.052159) scale(-1, -1) translate(-36.247833, -55.052159) "></path>
                    </g>
                </g>
            </g>
        </g>
    </g>
</svg>