<svg width="107" height="85" xmlns="http://www.w3.org/2000/svg" xmlns:xlink="http://www.w3.org/1999/xlink"><defs><path d="M2.01.01l103 .48a2 2 0 0 1 1.99 2V83a2 2 0 0 1-2 2H2a2 2 0 0 1-2-2V2.01a2 2 0 0 1 2.01-2z" id="a"/></defs><g fill="none" fill-rule="evenodd"><use fill="#FFF" xlink:href="#a"/><path stroke="#B5B6B4" stroke-width="4" d="M2 2.01V83h103V2.49L2 2.01z"/><path fill="#B5B6B4" d="M3 2h101v11H3z"/><path fill="#EEE" d="M2 13h101v8.5H2zM2 30h101v8.5H2zM2 48h101v8.5H2zM3 66h101v8.5H3z"/><path d="M2 2.01V83h103V2.49L2 2.01z" stroke="#B5B6B4" stroke-width="4"/><path d="M20.5 3.5v78.068M42.5 3.5v78.068M64.5 3.5v78.068M86.5 4.5v78.068M3.5 29.5h99M4.5 47.5h99M3.5 65.5h99" stroke="#B5B6B4" stroke-linecap="square"/><circle fill="#EEE" cx="8.5" cy="6.5" r="2.5"/><circle fill="#EEE" cx="16.5" cy="6.5" r="2.5"/><circle fill="#EEE" cx="24.5" cy="6.5" r="2.5"/></g></svg>