<?xml version="1.0" encoding="UTF-8"?>
<svg width="160px" height="113px" viewBox="0 0 160 113" version="1.1" xmlns="http://www.w3.org/2000/svg" xmlns:xlink="http://www.w3.org/1999/xlink">
    <!-- Generator: Sketch 42 (36781) - http://www.bohemiancoding.com/sketch -->
    <title>Success And Needs</title>
    <desc>Created with Sketch.</desc>
    <defs>
        <rect id="path-1" x="0" y="0" width="152" height="105"></rect>
        <mask id="mask-2" maskContentUnits="userSpaceOnUse" maskUnits="objectBoundingBox" x="-4" y="-4" width="160" height="113">
            <rect x="-4" y="-4" width="160" height="113" fill="white"></rect>
            <use xlink:href="#path-1" fill="black"></use>
        </mask>
    </defs>
    <g id="Page-1" stroke="none" stroke-width="1" fill="none" fill-rule="evenodd">
        <g id="Artboard" transform="translate(-53.000000, -197.000000)">
            <g id="Success-And-Needs" transform="translate(57.000000, 201.000000)">
                <use id="Rectangle-3" stroke="#FFFFFF" mask="url(#mask-2)" stroke-width="8" xlink:href="#path-1"></use>
                <circle id="Oval" stroke="#979797" stroke-width="15" cx="41.5" cy="52.5" r="23.5"></circle>
                <path d="M41.5,76 C54.4786916,76 65,65.4786916 65,52.5 C65,48.8945075 64.1880354,45.4786596 62.7369872,42.4253372 C61.1514621,39.0890459 58.8029094,36.1855884 55.9168679,33.9405038 C53.0308265,31.6954193 46.9335649,29 41.5,29 C28.5213084,29 18,39.5213084 18,52.5" id="Oval" stroke="#1FAF84" stroke-width="15" transform="translate(41.500000, 52.500000) rotate(-270.000000) translate(-41.500000, -52.500000) "></path>
                <circle id="Oval" stroke="#979797" stroke-width="15" cx="115.5" cy="52.5" r="23.5"></circle>
                <path d="M149.618494,53.0438309 C148.032968,49.7075395 145.684416,46.8040821 142.798374,44.5589975 C139.912333,42.3139129 133.815071,39.6184936 128.381506,39.6184936 C115.402815,39.6184936 104.881506,50.139802 104.881506,63.1184936" id="Oval" stroke="#1FAF84" stroke-width="15" transform="translate(127.250000, 51.368494) rotate(-270.000000) translate(-127.250000, -51.368494) "></path>
            </g>
        </g>
    </g>
</svg>