<svg id="Layer_1" data-name="Layer 1" xmlns="http://www.w3.org/2000/svg" viewBox="0 0 55.44 68.29"><defs><style>.cls-1{fill:#fff;}.cls-2{fill:#bdbec1;}</style></defs><title>Untitled-1</title><rect class="cls-1" x="2" y="2" width="52.78" height="65.05"/><path class="cls-2" d="M332.06,430.37h-49a3.24,3.24,0,0,1-3.24-3.24V365.32a3.24,3.24,0,0,1,3.24-3.24h49a3.24,3.24,0,0,1,3.24,3.24v61.81A3.24,3.24,0,0,1,332.06,430.37Zm-49-65.62a.58.58,0,0,0-.57.57v61.81a.58.58,0,0,0,.57.57h49a.58.58,0,0,0,.57-.57V365.32a.58.58,0,0,0-.57-.57Z" transform="translate(-279.86 -362.08)"/><rect class="cls-2" x="9.31" y="10.7" width="36.97" height="2.67" rx="1.22" ry="1.22"/><rect class="cls-2" x="9.31" y="17.31" width="36.97" height="2.67" rx="1.22" ry="1.22"/><rect class="cls-2" x="9.31" y="24.11" width="36.97" height="2.67" rx="1.22" ry="1.22"/><polygon class="cls-2" points="12.35 47.27 10.32 45.54 20.9 33.13 29.58 40.35 42.26 30 43.94 32.06 29.56 43.81 21.22 36.87 12.35 47.27"/><rect class="cls-2" x="11.15" y="50.09" width="6.48" height="8.64"/><rect class="cls-2" x="19.91" y="45.46" width="6.48" height="13.27"/><rect class="cls-2" x="28.49" y="46.4" width="6.48" height="12.32"/><rect class="cls-2" x="37.38" y="42.45" width="6.48" height="16.28"/></svg>