<?xml version="1.0" encoding="UTF-8"?>
<svg width="509px" height="72px" viewBox="0 0 509 72" version="1.1" xmlns="http://www.w3.org/2000/svg" xmlns:xlink="http://www.w3.org/1999/xlink">
    <!-- Generator: Sketch 46.2 (44496) - http://www.bohemiancoding.com/sketch -->
    <title>Artboard</title>
    <desc>Created with Sketch.</desc>
    <defs>
        <path d="M-10,29.9568966 C35.4223382,56.3189655 79.2458484,69.5 121.47053,69.5 C184.807554,69.5 194.221022,55.1206897 246.185658,29.9568966 C298.150295,4.79310345 321.451063,2.14304609e-15 388.049116,0 C432.447818,0 476.098113,9.98563218 519,29.9568966 L519,139 L-10,139 L-10,29.9568966 Z" id="path-1"></path>
    </defs>
    <g id="Page-1" stroke="none" stroke-width="1" fill="none" fill-rule="evenodd">
        <g id="Artboard">
            <g id="Rectangle">
                <use fill="#FFFFFF" fill-rule="evenodd" xlink:href="#path-1"></use>
                <path stroke="#DADADA" stroke-width="2" d="M-9,31.6890328 L-9,138 L518,138 L518,30.5950543 C475.414238,10.8633138 432.100229,1 388.049116,1 C321.336616,1 298.244718,5.85845801 246.621494,30.8569226 C237.205327,35.4166866 230.860425,38.7145575 217.450928,45.8751148 C205.666581,52.1678556 200.606638,54.7641532 194.393012,57.5626452 C173.85638,66.8119301 154.488824,70.5 121.47053,70.5 C79.5246301,70.5 36.0320986,57.5571857 -9,31.689032 Z"></path>
            </g>
        </g>
    </g>
</svg>