<?xml version="1.0" encoding="UTF-8"?>
<svg width="242px" height="286px" viewBox="0 0 242 286" version="1.1" xmlns="http://www.w3.org/2000/svg" xmlns:xlink="http://www.w3.org/1999/xlink">
    <!-- Generator: Sketch 46.2 (44496) - http://www.bohemiancoding.com/sketch -->
    <title>Group</title>
    <desc>Created with Sketch.</desc>
    <defs>
        <polygon id="path-1" points="0.06 239.898775 0.06 0.28484298 153.183215 0.28484298 153.183215 239.898775"></polygon>
        <polygon id="path-3" points="0.06 239.898775 0.06 0.28484298 153.183215 0.28484298 153.183215 239.898775"></polygon>
    </defs>
    <g id="Page-1" stroke="none" stroke-width="1" fill="none" fill-rule="evenodd">
        <g id="KickUp-Logo" transform="translate(-83.000000, -467.000000)">
            <g id="kickuplogo-(1)" transform="translate(83.000000, 467.000000)">
                <g id="Group">
                    <path d="M152.631,134.837 C151.569,135.082 153.732,134.613 152.631,134.837" id="Fill-1" fill="#BBBBBB" fill-rule="nonzero"></path>
                    <polyline id="Fill-2" fill="#BBBBBB" fill-rule="nonzero" points="229.341 2.977 212.686 0.184 210.224 14.864 226.879 17.657 229.341 2.977"></polyline>
                    <path d="M227.823,62.397 C221.657,61.356 215.827,65.51 214.8,71.676 C213.773,77.843 217.939,83.686 224.104,84.727 C230.27,85.769 233.988,63.438 227.823,62.397" id="Fill-3" fill="#BBBBBB" fill-rule="nonzero"></path>
                    <g id="Group-7" transform="translate(0.000000, 26.000000)">
                        <g id="Fill-4-Clipped">
                            <mask id="mask-2" fill="white">
                                <use xlink:href="#path-1"></use>
                            </mask>
                            <g id="path-2"></g>
                            <path d="M89.159,60.479 L121.196,96.391 L122.593,72.543 C139.08,69.871 152.104,56.115 153.12,38.787 C154.295,18.728 138.949,1.519 118.847,0.348 C98.745,-0.825 81.493,14.482 80.318,34.542 C79.74,44.407 83.174,53.57 89.191,60.487 L89.159,60.479" id="Fill-4" fill="#BBBBBB" fill-rule="nonzero" mask="url(#mask-2)"></path>
                        </g>
                        <g id="Fill-6-Clipped">
                            <mask id="mask-4" fill="white">
                                <use xlink:href="#path-3"></use>
                            </mask>
                            <g id="path-2"></g>
                            <path d="M79.795,183.84 C75.69,193.851 71.629,204.715 71.629,204.715 L15.747,186.056 L0,235.275 L0.08,235.303 C4.86,236.974 10.178,235.498 13.406,231.604 L34.478,204.642 L36.323,220.123 L77.185,238.846 C82.365,241.221 88.507,239.465 91.64,234.713 L108.858,208.441 C102.138,206.965 96.833,204.767 92.864,201.818 C87.256,197.651 83.011,191.306 79.795,183.84" id="Fill-6" fill="#BBBBBB" fill-rule="nonzero" mask="url(#mask-4)"></path>
                        </g>
                    </g>
                    <path d="M190.058,160.658 L193.013,168.568 L203.759,155.541 L214.937,88.877 C209.294,84.792 206.098,77.747 207.316,70.43 C208.532,63.13 213.771,57.44 220.544,55.437 L225.404,26.453 L208.749,23.66 L187.104,152.748 L190.058,160.658" id="Fill-8" fill="#BBBBBB" fill-rule="nonzero"></path>
                    <path d="M20.595,184.821 C20.595,184.821 35.563,131.386 78.13,133.868 C78.13,133.868 73.636,204.078 97.389,221.728 C114.255,234.261 164.492,227.072 164.492,227.072 L189.874,285.999 L241.655,263.525 L241.622,263.438 C239.596,258.331 234.584,255.035 229.082,255.189 L190.864,256.458 L203.24,245.198 L186.357,196.209 C184.825,191.762 180.602,188.809 175.898,188.895 L106.937,190.162 L135.027,181.875 L145.681,117.101 L152.631,134.837 C167.651,131.366 178.179,124.205 185.439,116.798 L191.79,78.928 C185.592,87.659 164.689,108.138 129.267,106.064 C129.262,106.069 129.259,106.071 129.254,106.076 L127.222,140.762 C127.222,140.762 94.329,104.028 94.203,103.971 C27.29,100.068 8.794,154.309 8.794,154.309 L26.744,154.647 C21.657,156.451 7.246,165.921 7.246,165.921 C4.512,173.405 6.268,181.461 11.58,186.75 C14.367,189.524 19.145,188.472 20.595,184.821" id="Fill-9" fill="#BBBBBB" fill-rule="nonzero"></path>
                </g>
            </g>
        </g>
    </g>
</svg>