<?xml version="1.0" encoding="UTF-8"?>
<svg width="160px" height="113px" viewBox="0 0 160 113" version="1.1" xmlns="http://www.w3.org/2000/svg" xmlns:xlink="http://www.w3.org/1999/xlink">
    <!-- Generator: Sketch 42 (36781) - http://www.bohemiancoding.com/sketch -->
    <title>Possible Leaders</title>
    <desc>Created with Sketch.</desc>
    <defs>
        <rect id="path-1" x="0" y="0" width="152" height="105"></rect>
        <mask id="mask-2" maskContentUnits="userSpaceOnUse" maskUnits="objectBoundingBox" x="-4" y="-4" width="160" height="113">
            <rect x="-4" y="-4" width="160" height="113" fill="white"></rect>
            <use xlink:href="#path-1" fill="black"></use>
        </mask>
        <path d="M89.1431385,56.6913707 C81.6458262,52.3776918 76,44.2792271 76,35 C76,21.1928813 87.1928813,10 101,10 C114.807119,10 126,21.1928813 126,35 C126,44.2792271 120.354174,52.3776918 112.856862,56.6913707 C125.143289,63.1508548 126,79 126,79 L76,79 C76,79 76.8567106,63.1508548 89.1431438,56.6913676 Z" id="path-3"></path>
        <mask id="mask-4" maskContentUnits="userSpaceOnUse" maskUnits="objectBoundingBox" x="0" y="0" width="50" height="69" fill="white">
            <use xlink:href="#path-3"></use>
        </mask>
        <path d="M39.1431385,56.6913707 C31.6458262,52.3776918 26,44.2792271 26,35 C26,21.1928813 37.1928813,10 51,10 C64.8071187,10 76,21.1928813 76,35 C76,44.2792271 70.3541738,52.3776918 62.8568615,56.6913707 C75.1432894,63.1508548 76,79 76,79 L26,79 C26,79 26.8567106,63.1508548 39.1431438,56.6913676 Z" id="path-5"></path>
        <mask id="mask-6" maskContentUnits="userSpaceOnUse" maskUnits="objectBoundingBox" x="0" y="0" width="50" height="69" fill="white">
            <use xlink:href="#path-5"></use>
        </mask>
        <path d="M64.1431385,73.6913707 C56.6458262,69.3776918 51,61.2792271 51,52 C51,38.1928813 62.1928813,27 76,27 C89.8071187,27 101,38.1928813 101,52 C101,61.2792271 95.3541738,69.3776918 87.8568615,73.6913707 C100.143289,80.1508548 101,96 101,96 L51,96 C51,96 51.8567106,80.1508548 64.1431438,73.6913676 Z" id="path-7"></path>
        <mask id="mask-8" maskContentUnits="userSpaceOnUse" maskUnits="objectBoundingBox" x="0" y="0" width="50" height="69" fill="white">
            <use xlink:href="#path-7"></use>
        </mask>
    </defs>
    <g id="Page-1" stroke="none" stroke-width="1" fill="none" fill-rule="evenodd">
        <g id="Artboard" transform="translate(-271.000000, -318.000000)">
            <g id="Possible-Leaders" transform="translate(275.000000, 322.000000)">
                <use id="Rectangle-3" stroke="#FFFFFF" mask="url(#mask-2)" stroke-width="8" xlink:href="#path-1"></use>
                <use id="Combined-Shape" stroke-opacity="0.4" stroke="#EEEEEE" mask="url(#mask-4)" stroke-width="6" fill="#F49064" xlink:href="#path-3"></use>
                <use id="Combined-Shape" stroke-opacity="0.4" stroke="#EEEEEE" mask="url(#mask-6)" stroke-width="6" fill="#007DA0" xlink:href="#path-5"></use>
                <use id="Combined-Shape" stroke-opacity="0.4" stroke="#EEEEEE" mask="url(#mask-8)" stroke-width="6" fill="#1FAF84" xlink:href="#path-7"></use>
            </g>
        </g>
    </g>
</svg>