<?xml version="1.0" encoding="UTF-8"?>
<svg width="107px" height="85px" viewBox="0 0 107 85" version="1.1" xmlns="http://www.w3.org/2000/svg" xmlns:xlink="http://www.w3.org/1999/xlink">
    <!-- Generator: Sketch 46.2 (44496) - http://www.bohemiancoding.com/sketch -->
    <title>Spreadsheet Icon</title>
    <desc>Created with Sketch.</desc>
    <defs>
        <path d="M2.00934467,0.0094430074 L105.009345,0.490698888 L105.009345,0.490698888 C106.110255,0.495842765 107,1.38975513 107,2.49067706 L107,83 L107,83 C107,84.1045695 106.104569,85 105,85 L2,85 L2,85 C0.8954305,85 7.98370909e-15,84.1045695 0,83 L0,44.0000263 L0,2.00942118 L4.4408921e-16,2.00942118 C3.0881846e-16,0.904851677 0.8954305,0.00942117656 2,0.00942117656 C2.0031149,0.00942117656 2.0062298,0.00942845353 2.00934467,0.0094430074 Z" id="path-1"></path>
    </defs>
    <g id="Page-1" stroke="none" stroke-width="1" fill="none" fill-rule="evenodd">
        <g id="Icons" transform="translate(-464.000000, -213.000000)">
            <g id="Spreadsheet-Icon" transform="translate(464.000000, 213.000000)">
                <g id="Rectangle-10">
                    <use fill="#FFFFFF" fill-rule="evenodd" xlink:href="#path-1"></use>
                    <path stroke="#B5B6B4" stroke-width="4" d="M2,2.00942118 L2,83 L105,83 L105,2.49067706 L2,2.00942118 Z"></path>
                </g>
                <rect id="Rectangle-11" fill="#B5B6B4" x="3" y="2" width="101" height="11"></rect>
                <rect id="Rectangle-11" fill="#EEEEEE" x="2" y="13" width="101" height="8.5"></rect>
                <rect id="Rectangle-11" fill="#EEEEEE" x="2" y="30" width="101" height="8.5"></rect>
                <rect id="Rectangle-11" fill="#EEEEEE" x="2" y="48" width="101" height="8.5"></rect>
                <rect id="Rectangle-11" fill="#EEEEEE" x="3" y="66" width="101" height="8.5"></rect>
                <path d="M2,2.00942118 L2,83 L105,83 L105,2.49067706 L2,2.00942118 Z" id="Rectangle-10" stroke="#B5B6B4" stroke-width="4"></path>
                <path d="M20.5,3.5 L20.5,81.5681466" id="Line-4" stroke="#B5B6B4" stroke-linecap="square"></path>
                <path d="M42.5,3.5 L42.5,81.5681466" id="Line-4" stroke="#B5B6B4" stroke-linecap="square"></path>
                <path d="M64.5,3.5 L64.5,81.5681466" id="Line-4" stroke="#B5B6B4" stroke-linecap="square"></path>
                <path d="M86.5,4.5 L86.5,82.5681466" id="Line-4" stroke="#B5B6B4" stroke-linecap="square"></path>
                <path d="M3.5,29.5 L102.5,29.5" id="Line-5" stroke="#B5B6B4" stroke-linecap="square"></path>
                <path d="M4.5,47.5 L103.5,47.5" id="Line-5" stroke="#B5B6B4" stroke-linecap="square"></path>
                <path d="M3.5,65.5 L102.5,65.5" id="Line-5" stroke="#B5B6B4" stroke-linecap="square"></path>
                <circle id="Oval-4" fill="#EEEEEE" cx="8.5" cy="6.5" r="2.5"></circle>
                <circle id="Oval-4" fill="#EEEEEE" cx="16.5" cy="6.5" r="2.5"></circle>
                <circle id="Oval-4" fill="#EEEEEE" cx="24.5" cy="6.5" r="2.5"></circle>
            </g>
        </g>
    </g>
</svg>